<?xml version="1.0" standalone="no"?>
<svg xmlns="http://www.w3.org/2000/svg" viewBox="0 0 98 65" width="98" height="65"><g fill="#1f2d40" color="#1f2d40" transform="translate(31.16 0) scale(0.35) "><svg width="100.0" height="100.0" x="0.0" y="0.0" viewBox="0 0 100 100"><path d="M58.948,79.341H41.052c-1.236,0-2.237,1.001-2.237,2.236s1.001,2.237,2.237,2.237h17.896c1.235,0,2.237-1.002,2.237-2.237  S60.184,79.341,58.948,79.341z"></path><path d="M58.948,86.286H41.052c-1.236,0-2.237,1.002-2.237,2.237s1.001,2.237,2.237,2.237H43.3C43.423,93.121,45.371,95,47.763,95  h4.475c2.392,0,4.339-1.879,4.462-4.239h2.249c1.235,0,2.237-1.002,2.237-2.237S60.184,86.286,58.948,86.286z"></path><path d="M13.803,28.543l8.719,5.033c0.802,0.464,1.828,0.188,2.292-0.614c0.462-0.802,0.188-1.829-0.615-2.292l-8.718-5.034  c-0.802-0.463-1.829-0.188-2.292,0.614C12.726,27.054,13.001,28.081,13.803,28.543z"></path><path d="M86.195,66.465l-8.718-5.034c-0.803-0.463-1.828-0.188-2.292,0.614c-0.463,0.803-0.188,1.829,0.614,2.292l8.719,5.033  c0.802,0.465,1.829,0.188,2.291-0.614C87.272,67.954,86.999,66.928,86.195,66.465z"></path><path d="M20.917,47.505c0-0.926-0.751-1.678-1.678-1.678H9.173c-0.926,0-1.678,0.751-1.678,1.678c0,0.927,0.751,1.678,1.678,1.678  H19.24C20.166,49.183,20.917,48.432,20.917,47.505z"></path><path d="M90.827,45.827H80.76c-0.926,0-1.678,0.751-1.678,1.678c0,0.927,0.752,1.678,1.678,1.678h10.067  c0.927,0,1.678-0.751,1.678-1.678C92.505,46.579,91.754,45.827,90.827,45.827z"></path><path d="M22.522,61.431l-8.719,5.034c-0.802,0.463-1.077,1.489-0.614,2.292c0.463,0.803,1.49,1.078,2.292,0.614l8.719-5.033  c0.802-0.463,1.077-1.49,0.614-2.292C24.351,61.243,23.324,60.968,22.522,61.431z"></path><path d="M77.478,33.578l8.719-5.034c0.803-0.463,1.077-1.49,0.614-2.292c-0.463-0.803-1.49-1.078-2.292-0.615L75.8,30.671  c-0.802,0.463-1.077,1.49-0.614,2.293C75.649,33.766,76.676,34.041,77.478,33.578z"></path><path d="M64.541,22.319c0.802,0.462,1.829,0.187,2.292-0.615l5.034-8.718c0.462-0.803,0.188-1.83-0.615-2.292  c-0.801-0.464-1.829-0.189-2.291,0.613l-5.035,8.719C63.464,20.828,63.738,21.854,64.541,22.319z"></path><path d="M50,18.422c0.926,0,1.678-0.751,1.678-1.678V6.678C51.678,5.751,50.926,5,50,5s-1.678,0.751-1.678,1.678v10.067  C48.322,17.671,49.074,18.422,50,18.422z"></path><path d="M33.167,21.704c0.463,0.803,1.49,1.077,2.292,0.614c0.802-0.463,1.077-1.489,0.614-2.292l-5.034-8.718  c-0.463-0.802-1.49-1.077-2.292-0.614c-0.802,0.463-1.077,1.49-0.614,2.292L33.167,21.704z"></path><path d="M50,22.897c-12.002,0-22.234,9.804-22.315,21.908c0,11.416,8.228,15.847,11.34,29.869c0.268,1.206,1.431,2.194,2.666,2.194  h16.617c1.234,0,2.398-0.988,2.666-2.194c3.113-14.022,11.342-18.453,11.342-29.869C72.234,32.701,62.003,22.897,50,22.897z"></path></svg></g><line x1="32.209999999999994" y1="41" x2="65.10999999999999" y2="41" stroke="#1f2d40" stroke-linecap="round"></line><path fill="#1f2d40" fill-rule="nonzero" d="M9 0Q11.38 0 13.27 0.72Q15.17 1.44 16.28 2.84Q17.40 4.25 17.40 6.26L17.40 6.26L12.34 6.26Q12.34 5.23 11.42 4.60Q10.51 3.96 9.22 3.96L9.22 3.96Q7.34 3.96 6.38 4.96Q5.42 5.95 5.42 7.78L5.42 7.78L5.42 9.31Q5.42 11.14 6.38 12.13Q7.34 13.13 9.22 13.13L9.22 13.13Q10.51 13.13 11.42 12.52Q12.34 11.90 12.34 10.94L12.34 10.94L8.59 10.94L8.59 7.58L17.40 7.58L17.40 16.80L14.66 16.80L14.14 15.17Q11.88 17.09 8.23 17.09L8.23 17.09Q4.13 17.09 2.06 14.94Q0 12.79 0 8.54L0 8.54Q0 4.34 2.34 2.17Q4.68 0 9 0L9 0ZM29.95 0.29Q31.49 0.29 32.69 1.00Q33.89 1.70 34.56 2.94Q35.23 4.18 35.23 5.71L35.23 5.71L35.23 6.02Q35.23 7.56 34.56 8.81Q33.89 10.06 32.69 10.76Q31.49 11.47 29.95 11.47L29.95 11.47L25.99 11.47L25.99 16.80L20.69 16.80L20.69 0.29L29.95 0.29ZM25.99 4.20L25.99 7.61L28.18 7.61Q29.02 7.61 29.44 7.18Q29.86 6.74 29.86 6L29.86 6L29.86 5.81Q29.86 5.04 29.44 4.62Q29.02 4.20 28.18 4.20L28.18 4.20L25.99 4.20ZM52.66 16.80L47.04 16.80L46.34 14.47L40.56 14.47L39.86 16.80L34.44 16.80L40.46 0.29L46.63 0.29L52.66 16.80ZM43.42 4.90L41.66 10.78L45.24 10.78L43.51 4.90L43.42 4.90ZM62.52 0Q64.90 0 66.79 0.72Q68.69 1.44 69.80 2.84Q70.92 4.25 70.92 6.26L70.92 6.26L65.86 6.26Q65.86 5.23 64.94 4.60Q64.03 3.96 62.74 3.96L62.74 3.96Q60.86 3.96 59.90 4.96Q58.94 5.95 58.94 7.78L58.94 7.78L58.94 9.31Q58.94 11.14 59.90 12.13Q60.86 13.13 62.74 13.13L62.74 13.13Q64.03 13.13 64.94 12.52Q65.86 11.90 65.86 10.94L65.86 10.94L62.11 10.94L62.11 7.58L70.92 7.58L70.92 16.80L68.18 16.80L67.66 15.17Q65.40 17.09 61.75 17.09L61.75 17.09Q57.65 17.09 55.58 14.94Q53.52 12.79 53.52 8.54L53.52 8.54Q53.52 4.34 55.86 2.17Q58.20 0 62.52 0L62.52 0ZM79.75 16.80L74.45 16.80L74.45 0.29L79.75 0.29L79.75 16.80ZM83.54 16.80L83.54 0.29L88.85 0.29L88.85 12.58L97.32 12.58L97.32 16.80L83.54 16.80Z" transform="translate(0, 47)"></path></svg>