<?xml version="1.0" standalone="no"?>
<svg xmlns="http://www.w3.org/2000/svg" viewBox="0 0 101.27 116.936" width="101.27" height="116.936"><polygon fill="#1C5E80" points="101.27,29.234 101.27,87.702 50.635,116.936 0,87.702 0,29.234 50.635,0" mask="url(#iconBelowInitialsInInvertedHexagonTextMask)"></polygon><mask id="iconBelowInitialsInInvertedHexagonTextMask"><rect x="0" y="0" width="100%" height="100%" fill="white"></rect><path fill="black" fill-rule="nonzero" d="M10.50 0Q13.27 0 15.48 0.84Q17.70 1.68 19.00 3.32Q20.30 4.96 20.30 7.31L20.30 7.31L14.39 7.31Q14.39 6.10 13.33 5.36Q12.26 4.62 10.75 4.62L10.75 4.62Q8.57 4.62 7.45 5.78Q6.33 6.94 6.33 9.07L6.33 9.07L6.33 10.86Q6.33 12.99 7.45 14.15Q8.57 15.32 10.75 15.32L10.75 15.32Q12.26 15.32 13.33 14.60Q14.39 13.89 14.39 12.77L14.39 12.77L10.02 12.77L10.02 8.85L20.30 8.85L20.30 19.60L17.11 19.60L16.49 17.70Q13.86 19.94 9.60 19.94L9.60 19.94Q4.82 19.94 2.41 17.43Q0 14.92 0 9.97L0 9.97Q0 5.07 2.73 2.53Q5.46 0 10.50 0L10.50 0Z" transform="translate(40.485, 23.5)" color="black"></path><g fill="black" color="black" transform="translate(28.634999999999998 51.436) scale(0.44)"><svg width="100.0" height="100.0" x="0.0" y="0.0" viewBox="0 0 100 100"><path d="M58.948,79.341H41.052c-1.236,0-2.237,1.001-2.237,2.236s1.001,2.237,2.237,2.237h17.896c1.235,0,2.237-1.002,2.237-2.237  S60.184,79.341,58.948,79.341z"></path><path d="M58.948,86.286H41.052c-1.236,0-2.237,1.002-2.237,2.237s1.001,2.237,2.237,2.237H43.3C43.423,93.121,45.371,95,47.763,95  h4.475c2.392,0,4.339-1.879,4.462-4.239h2.249c1.235,0,2.237-1.002,2.237-2.237S60.184,86.286,58.948,86.286z"></path><path d="M13.803,28.543l8.719,5.033c0.802,0.464,1.828,0.188,2.292-0.614c0.462-0.802,0.188-1.829-0.615-2.292l-8.718-5.034  c-0.802-0.463-1.829-0.188-2.292,0.614C12.726,27.054,13.001,28.081,13.803,28.543z"></path><path d="M86.195,66.465l-8.718-5.034c-0.803-0.463-1.828-0.188-2.292,0.614c-0.463,0.803-0.188,1.829,0.614,2.292l8.719,5.033  c0.802,0.465,1.829,0.188,2.291-0.614C87.272,67.954,86.999,66.928,86.195,66.465z"></path><path d="M20.917,47.505c0-0.926-0.751-1.678-1.678-1.678H9.173c-0.926,0-1.678,0.751-1.678,1.678c0,0.927,0.751,1.678,1.678,1.678  H19.24C20.166,49.183,20.917,48.432,20.917,47.505z"></path><path d="M90.827,45.827H80.76c-0.926,0-1.678,0.751-1.678,1.678c0,0.927,0.752,1.678,1.678,1.678h10.067  c0.927,0,1.678-0.751,1.678-1.678C92.505,46.579,91.754,45.827,90.827,45.827z"></path><path d="M22.522,61.431l-8.719,5.034c-0.802,0.463-1.077,1.489-0.614,2.292c0.463,0.803,1.49,1.078,2.292,0.614l8.719-5.033  c0.802-0.463,1.077-1.49,0.614-2.292C24.351,61.243,23.324,60.968,22.522,61.431z"></path><path d="M77.478,33.578l8.719-5.034c0.803-0.463,1.077-1.49,0.614-2.292c-0.463-0.803-1.49-1.078-2.292-0.615L75.8,30.671  c-0.802,0.463-1.077,1.49-0.614,2.293C75.649,33.766,76.676,34.041,77.478,33.578z"></path><path d="M64.541,22.319c0.802,0.462,1.829,0.187,2.292-0.615l5.034-8.718c0.462-0.803,0.188-1.83-0.615-2.292  c-0.801-0.464-1.829-0.189-2.291,0.613l-5.035,8.719C63.464,20.828,63.738,21.854,64.541,22.319z"></path><path d="M50,18.422c0.926,0,1.678-0.751,1.678-1.678V6.678C51.678,5.751,50.926,5,50,5s-1.678,0.751-1.678,1.678v10.067  C48.322,17.671,49.074,18.422,50,18.422z"></path><path d="M33.167,21.704c0.463,0.803,1.49,1.077,2.292,0.614c0.802-0.463,1.077-1.489,0.614-2.292l-5.034-8.718  c-0.463-0.802-1.49-1.077-2.292-0.614c-0.802,0.463-1.077,1.49-0.614,2.292L33.167,21.704z"></path><path d="M50,22.897c-12.002,0-22.234,9.804-22.315,21.908c0,11.416,8.228,15.847,11.34,29.869c0.268,1.206,1.431,2.194,2.666,2.194  h16.617c1.234,0,2.398-0.988,2.666-2.194c3.113-14.022,11.342-18.453,11.342-29.869C72.234,32.701,62.003,22.897,50,22.897z"></path></svg></g></mask></svg>